# ASF file generated by Tido's ASF writer for MATLAB.
:version 1.10
:name VICON
:units
  mass 1
  length 0.45000000000000001
  angle deg
:documentation
   .ast/.asf automatically generated from VICON data using
   VICON BodyBuilder and BodyLanguage model FoxedUp or BRILLIANT.MOD
:root
  axis xyz
  order tx ty tz rx ry rz 
  position 0 0 0
  orientation 0 0 0
:bonedata
  begin
    id 1
    name lhipjoint
    direction 0.44017800000000001 -0.82263900000000001 0.359871
    length 1.1390085000000001
    axis 0 0 0 xyz
  end
  begin
    id 2
    name lfemur
    direction 0.34201999999999999 -0.939693 0
    length 3.5465939999999998
    axis 0 0 20 xyz
    dof rx ry rz 
    limits (-160 20)
           (-70 70)
           (-60 70)
  end
  begin
    id 3
    name ltibia
    direction 0.34201999999999999 -0.939693 0
    length 3.7970234999999999
    axis 0 0 20 xyz
    dof rx 
    limits (-10 170)
  end
  begin
    id 4
    name lfoot
    direction 0.088635099999999994 -0.24352299999999999 0.96583699999999995
    length 1.1853629999999999
    axis -90 7.62852e-016 20 xyz
    dof rx rz 
    limits (-45 90)
           (-70 20)
  end
  begin
    id 5
    name ltoes
    direction 1.53703e-011 -4.2171700000000001e-011 1
    length 0.59142150000000004
    axis -90 7.62852e-016 20 xyz
    dof rx 
    limits (-90 20)
  end
  begin
    id 6
    name rhipjoint
    direction -0.399779 -0.83977299999999999 0.367367
    length 1.115766
    axis 0 0 0 xyz
  end
  begin
    id 7
    name rfemur
    direction -0.34201999999999999 -0.939693 0
    length 3.4866269999999999
    axis 0 0 -20 xyz
    dof rx ry rz 
    limits (-160 20)
           (-70 70)
           (-70 60)
  end
  begin
    id 8
    name rtibia
    direction -0.34201999999999999 -0.939693 0
    length 3.9349440000000002
    axis 0 0 -20 xyz
    dof rx 
    limits (-10 170)
  end
  begin
    id 9
    name rfoot
    direction -0.108514 -0.29813899999999999 0.94833400000000001
    length 1.1974590000000001
    axis -90 -7.62852e-016 -20 xyz
    dof rx rz 
    limits (-45 90)
           (-20 70)
  end
  begin
    id 10
    name rtoes
    direction -1.5339199999999999e-011 -4.2207699999999999e-011 1
    length 0.59392350000000005
    axis -90 -7.62852e-016 -20 xyz
    dof rx 
    limits (-90 20)
  end
  begin
    id 11
    name lowerback
    direction 0.011325699999999999 0.99986600000000003 0.0118602
    length 1.164123
    axis 0 0 0 xyz
    dof rx ry rz 
    limits (-20 45)
           (-30 30)
           (-30 30)
  end
  begin
    id 12
    name upperback
    direction -0.016474699999999998 0.99519299999999999 -0.096537499999999998
    length 1.135656
    axis 0 0 0 xyz
    dof rx ry rz 
    limits (-20 45)
           (-30 30)
           (-30 30)
  end
  begin
    id 13
    name thorax
    direction -0.019430099999999999 0.99433000000000005 -0.10455200000000001
    length 1.1524455
    axis 0 0 0 xyz
    dof rx ry rz 
    limits (-20 45)
           (-30 30)
           (-30 30)
  end
  begin
    id 14
    name lowerneck
    direction 0.014854300000000001 0.995587 -0.092657000000000003
    length 0.772119
    axis 0 0 0 xyz
    dof rx ry rz 
    limits (-20 45)
           (-30 30)
           (-30 30)
  end
  begin
    id 15
    name upperneck
    direction -0.0135467 0.99365599999999998 -0.111639
    length 0.76021650000000007
    axis 0 0 0 xyz
    dof rx ry rz 
    limits (-20 45)
           (-30 30)
           (-30 30)
  end
  begin
    id 16
    name head
    direction -0.0061534900000000002 0.99954699999999996 -0.029447999999999998
    length 0.78578999999999999
    axis 0 0 0 xyz
    dof rx ry rz 
    limits (-20 45)
           (-30 30)
           (-30 30)
  end
  begin
    id 17
    name lclavicle
    direction 0.98826700000000001 0.14988499999999999 0.029371299999999999
    length 2.012499
    axis 0 0 0 xyz
    dof ry rz 
    limits (-20 10)
           (0 20)
  end
  begin
    id 18
    name lhumerus
    direction 1 -4.4898600000000001e-011 -1.1483300000000001e-027
    length 2.4171659999999999
    axis 180 -30 -90 xyz
    dof rx ry rz 
    limits (-60 90)
           (-90 90)
           (-90 90)
  end
  begin
    id 19
    name lradius
    direction 0.99999800000000005 0.00170963 -0.00098705499999999992
    length 1.773954
    axis 180 -30 -90 xyz
    dof rx 
    limits (-10 170)
  end
  begin
    id 20
    name lwrist
    direction 0.99999800000000005 7.53149e-005 -0.00194706
    length 0.88697700000000002
    axis 4.6505600000000004e-015 90 90 xyz
    dof ry 
    limits (-180 0)
  end
  begin
    id 21
    name lhand
    direction 1 -4.48973e-011 -1.3174599999999999e-026
    length 0.5306265
    axis 8.4064999999999996e-015 90 90 xyz
    dof rx rz 
    limits (-90 90)
           (-45 45)
  end
  begin
    id 22
    name lfingers
    direction 1 -4.49107e-011 -2.6349199999999999e-026
    length 0.42780555000000003
    axis 1.6812999999999999e-014 90 90 xyz
    dof rx 
    limits (0 90)
  end
  begin
    id 23
    name lthumb
    direction 0.70710700000000004 -6.3504800000000005e-011 0.70710700000000004
    length 0.6142455
    axis -90 45 2.8529899999999998e-015 xyz
    dof rx rz 
    limits (-45 45)
           (-45 45)
  end
  begin
    id 24
    name rclavicle
    direction -0.996699 0.064289499999999999 -0.049572499999999999
    length 2.0817494999999999
    axis 0 0 0 xyz
    dof ry rz 
    limits (-10 20)
           (-20 0)
  end
  begin
    id 25
    name rhumerus
    direction -1 -4.4891899999999998e-011 -2.4105900000000001e-027
    length 2.474145
    axis 180 30 90 xyz
    dof rx ry rz 
    limits (-90 60)
           (-90 90)
           (-90 90)
  end
  begin
    id 26
    name rradius
    direction -0.99999899999999997 0.0011810099999999999 -0.00068185800000000003
    length 1.5677145000000001
    axis 180 30 90 xyz
    dof rx 
    limits (-10 170)
  end
  begin
    id 27
    name rwrist
    direction -0.99999899999999997 0.000321823 -0.00132288
    length 0.78385499999999997
    axis 4.6505600000000004e-015 -90 -90 xyz
    dof ry 
    limits (-180 0)
  end
  begin
    id 28
    name rhand
    direction -1 -4.4902199999999998e-011 -1.3174599999999999e-026
    length 0.60719400000000001
    axis 8.4064999999999996e-015 -90 -90 xyz
    dof rx rz 
    limits (-90 90)
           (-45 45)
  end
  begin
    id 29
    name rfingers
    direction -1 -4.4917800000000002e-011 -2.6349199999999999e-026
    length 0.48953249999999998
    axis 1.6812999999999999e-014 -90 -90 xyz
    dof rx 
    limits (0 90)
  end
  begin
    id 30
    name rthumb
    direction -0.70710700000000004 -6.3471300000000002e-011 0.70710700000000004
    length 0.70287750000000004
    axis -90 -45 -2.8529899999999998e-015 xyz
    dof rx rz 
    limits (-45 45)
           (-45 45)
  end
:hierarchy
begin
  root lhipjoint rhipjoint lowerback 
  lhipjoint lfemur 
  lfemur ltibia 
  ltibia lfoot 
  lfoot ltoes 
  rhipjoint rfemur 
  rfemur rtibia 
  rtibia rfoot 
  rfoot rtoes 
  lowerback upperback 
  upperback thorax 
  thorax lowerneck lclavicle rclavicle 
  lowerneck upperneck 
  upperneck head 
  lclavicle lhumerus 
  lhumerus lradius 
  lradius lwrist 
  lwrist lhand lthumb 
  lhand lfingers 
  rclavicle rhumerus 
  rhumerus rradius 
  rradius rwrist 
  rwrist rhand rthumb 
  rhand rfingers 
end

# AMC file generated by Tido's AMC writer for MATLAB on 27-Nov-2005 at 18:24:20
# Corresponding ASF file: S:\data_MoCap\MoCaDaDB\HDM\Bonn_ASF_AMC_Use IK_on\björn\bjorn.asf
# Number of frames: 542
# Sampling rate: 120
:fully-specified
:degrees
17
root -8.2439549999999997 8.5358249999999991 -5.0815800000000007 184.148 -4.0709600000000004 538.80899999999997 
lfemur -14.4374 9.0651100000000007 -17.550799999999999 
ltibia 34.7697 
lfoot -18.702400000000001 -14.8391 
ltoes -13.282500000000001 
rfemur -16.767900000000001 -16.170999999999999 16.958300000000001 
rtibia 48.393999999999998 
rfoot -23.1463 1.4263399999999999 
rtoes -20.3293 
lowerback -2.6185399999999999 2.1367600000000002 -6.2822800000000001 
upperback 9.3695599999999999 2.7631299999999999 -4.4881900000000003 
thorax 11.459300000000001 0.56997799999999998 -1.1050500000000001 
lowerneck 1.0939000000000001 -5.9031500000000001 1.4803200000000001 
upperneck 18.230899999999998 -11.734299999999999 9.3189799999999998 
head 5.8434100000000004 -5.7349600000000001 2.0405700000000002 
lclavicle -3.1010400000000002e-014 -1.1131899999999999e-014 
lhumerus -25.0318 13.345700000000001 77.691000000000003 
lradius 16.2559 
lwrist -40.3217 
lhand -17.957599999999999 -10.658799999999999 
lfingers 7.1250200000000001 
lthumb 8.3112300000000001 19.157699999999998 
rclavicle -3.1010400000000002e-014 -1.1131899999999999e-014 
rhumerus -25.1831 -18.869399999999999 -91.2226 
rradius 25.666 
rwrist 9.93553 
rhand -10.9099 15.085599999999999 
rfingers 7.1250200000000001 
rthumb 15.1073 -14.343 
18
root -8.2385999999999999 8.5365450000000003 -5.0927850000000001 184.21100000000001 -4.0763499999999997 538.97799999999995 
lfemur -14.403499999999999 9.0656800000000004 -17.312200000000001 
ltibia 34.720500000000001 
lfoot -18.8505 -14.7758 
ltoes -13.7729 
rfemur -17.617899999999999 -16.287700000000001 17.202300000000001 
rtibia 49.183599999999998 
rfoot -22.781199999999998 2.722 
rtoes -20.8109 
lowerback -2.4978600000000002 2.0719799999999999 -6.39255 
upperback 9.3425200000000004 2.6672799999999999 -4.4837400000000001 
thorax 11.3521 0.515482 -1.0515099999999999 
lowerneck 1.21271 -5.9418199999999999 1.27823 
upperneck 18.091999999999999 -11.8087 9.5797799999999995 
head 5.8079799999999997 -5.77963 2.1566000000000001 
lclavicle 1.27222e-014 -2.3854199999999999e-014 
lhumerus -24.798100000000002 15.021800000000001 77.035700000000006 
lradius 15.638 
lwrist -42.216999999999999 
lhand -17.840299999999999 -10.3706 
lfingers 7.1250200000000001 
lthumb 8.4244699999999995 19.441400000000002 
rclavicle 1.27222e-014 -2.3854199999999999e-014 
rhumerus -25.431000000000001 -18.7729 -91.226600000000005 
rradius 25.674299999999999 
rwrist 9.7941800000000008 
rhand -10.8902 15.226000000000001 
rfingers 7.1250200000000001 
rthumb 15.126200000000001 -14.2012 
19
root -8.23428 8.5365000000000002 -5.1047099999999999 184.239 -4.0346000000000002 539.13199999999995 
lfemur -14.334300000000001 9.0648599999999995 -17.098500000000001 
ltibia 34.698399999999999 
lfoot -19.030899999999999 -14.6241 
ltoes -14.4171 
rfemur -18.390499999999999 -16.334900000000001 17.406600000000001 
rtibia 49.829000000000001 
rfoot -22.453900000000001 4.2940100000000001 
rtoes -20.616299999999999 
lowerback -2.3726500000000001 2.01518 -6.4866799999999998 
upperback 9.3445800000000006 2.5770900000000001 -4.4751899999999996 
thorax 11.276199999999999 0.462005 -1.00285 
lowerneck 1.2571300000000001 -5.9691400000000003 1.04643 
upperneck 18.009799999999998 -11.874700000000001 9.8252500000000005 
head 5.8035399999999999 -5.8176199999999998 2.2687300000000001 
lclavicle -2.3058999999999999e-014 -4.29375e-014 
lhumerus -24.610600000000002 16.476500000000001 76.474699999999999 
lradius 15.153 
lwrist -43.7746 
lhand -17.585000000000001 -10.026899999999999 
lfingers 7.1250200000000001 
lthumb 8.6708300000000005 19.774999999999999 
rclavicle -2.3058999999999999e-014 -4.29375e-014 
rhumerus -25.604099999999999 -18.6431 -91.210700000000003 
rradius 25.6416 
rwrist 9.7713800000000006 
rhand -10.926600000000001 15.357799999999999 
rfingers 7.1250200000000001 
rthumb 15.091200000000001 -14.071999999999999 
20
root -8.2303650000000008 8.5360500000000012 -5.1177150000000005 184.30000000000001 -3.9813499999999999 539.30100000000004 
lfemur -14.283300000000001 8.9801199999999994 -16.877400000000002 
ltibia 34.680500000000002 
lfoot -19.2242 -14.4268 
ltoes -14.9192 
rfemur -19.170200000000001 -16.3598 17.6327 
rtibia 50.331699999999998 
rfoot -21.990200000000002 6.25542 
rtoes -19.436599999999999 
lowerback -2.3185199999999999 1.95225 -6.5640900000000002 
upperback 9.3458000000000006 2.4877899999999999 -4.4498100000000003 
thorax 11.2431 0.41049099999999999 -0.94365100000000002 
lowerneck 1.3393999999999999 -5.99864 0.82868900000000001 
upperneck 17.895700000000001 -11.9376 10.0685 
head 5.7818500000000004 -5.8561399999999999 2.38043 
lclavicle -4.6117999999999997e-014 9.5416600000000005e-015 
lhumerus -24.377500000000001 17.660900000000002 76.0304 
lradius 14.700200000000001 
lwrist -44.938899999999997 
lhand -17.226900000000001 -9.58718 
lfingers 7.1250200000000001 
lthumb 9.0163700000000002 20.200099999999999 
rclavicle -4.6117999999999997e-014 9.5416600000000005e-015 
rhumerus -25.7913 -18.496600000000001 -91.184700000000007 
rradius 25.605 
rwrist 9.7458600000000004 
rhand -11.0275 15.4482 
rfingers 7.1250200000000001 
rthumb 14.994 -13.988899999999999 
21
root -8.2267200000000003 8.5356450000000006 -5.1323400000000001 184.35300000000001 -3.9060899999999998 539.44899999999996 
lfemur -14.212999999999999 8.95228 -16.678000000000001 
ltibia 34.660200000000003 
lfoot -19.427800000000001 -14.240600000000001 
ltoes -15.513400000000001 
rfemur -19.918600000000001 -16.363600000000002 17.824200000000001 
rtibia 50.6845 
rfoot -21.416799999999999 8.3389699999999998 
rtoes -17.812799999999999 
lowerback -2.2558099999999999 1.88731 -6.6393700000000004 
upperback 9.3356999999999992 2.3946999999999998 -4.4482400000000002 
thorax 11.1935 0.35870999999999997 -0.91155399999999998 
lowerneck 1.42377 -6.0310499999999996 0.68391599999999997 
upperneck 17.784400000000002 -12.002599999999999 10.2729 
head 5.7553000000000001 -5.8946199999999997 2.4683600000000001 
lclavicle -2.38542e-015 -4.4527799999999999e-014 
lhumerus -24.225300000000001 19.261399999999998 75.466300000000004 
lradius 14.264900000000001 
lwrist -46.400799999999997 
lhand -16.720500000000001 -9.0175099999999997 
lfingers 7.1250200000000001 
lthumb 9.5050600000000003 20.748100000000001 
rclavicle -2.38542e-015 -4.4527799999999999e-014 
rhumerus -25.915500000000002 -18.383900000000001 -91.187200000000004 
rradius 25.480699999999999 
rwrist 9.7110400000000006 
rhand -11.1035 15.4564 
rfingers 7.1250200000000001 
rthumb 14.9208 -13.9862 
22
root -8.2234350000000003 8.5355550000000004 -5.1489000000000003 184.41399999999999 -3.83012 539.62 
lfemur -14.116899999999999 8.9137900000000005 -16.4557 
ltibia 34.603499999999997 
lfoot -19.593800000000002 -14.0906 
ltoes -15.7829 
rfemur -20.678899999999999 -16.407299999999999 18.039899999999999 
rtibia 50.913499999999999 
rfoot -20.767199999999999 10.244300000000001 
rtoes -16.240500000000001 
lowerback -2.2466699999999999 1.8168899999999999 -6.7040899999999999 
upperback 9.3455899999999996 2.29996 -4.40991 
thorax 11.198499999999999 0.30464599999999997 -0.84553699999999998 
lowerneck 1.4567099999999999 -6.0619800000000001 0.54134899999999997 
upperneck 17.694800000000001 -12.0586 10.435600000000001 
head 5.74139 -5.9264299999999999 2.5409199999999998 
lclavicle 6.2020800000000005e-014 0 
lhumerus -23.986599999999999 19.7986 75.251800000000003 
lradius 13.9735 
lwrist -46.592100000000002 
lhand -16.081700000000001 -8.3043399999999998 
lfingers 7.1250200000000001 
lthumb 10.1213 21.432200000000002 
rclavicle 6.2020800000000005e-014 0 
rhumerus -26.132999999999999 -18.285699999999999 -91.133399999999995 
rradius 25.460599999999999 
rwrist 9.8244100000000003 
rhand -11.1777 15.420999999999999 
rfingers 7.1250200000000001 
rthumb 14.849299999999999 -14.0268 
